<svg width="215" height="33" viewBox="0 0 215 33" fill="none" xmlns="http://www.w3.org/2000/svg">
<path d="M128.209 24.7628C126.427 24.7628 124.87 24.3578 123.538 23.5478C122.206 22.7378 121.171 21.6128 120.433 20.1728C119.695 18.7148 119.326 17.0228 119.326 15.0968C119.326 13.1528 119.704 11.4428 120.46 9.96684C121.234 8.47284 122.323 7.31184 123.727 6.48384C125.149 5.63784 126.832 5.21484 128.776 5.21484C130.99 5.21484 132.826 5.74584 134.284 6.80784C135.742 7.86984 136.687 9.33684 137.119 11.2088H133.258C132.97 10.3268 132.448 9.64284 131.692 9.15684C130.936 8.65284 129.964 8.40084 128.776 8.40084C126.886 8.40084 125.428 9.00384 124.402 10.2098C123.376 11.3978 122.863 13.0358 122.863 15.1238C122.863 17.2118 123.367 18.8318 124.375 19.9838C125.401 21.1178 126.787 21.6848 128.533 21.6848C130.243 21.6848 131.53 21.2258 132.394 20.3078C133.276 19.3718 133.807 18.1478 133.987 16.6358H129.208V14.0438H137.47V24.4388H134.284L134.014 21.9548C133.402 22.8548 132.637 23.5478 131.719 24.0338C130.801 24.5198 129.631 24.7628 128.209 24.7628Z" fill="white"/>
<path d="M147.175 24.7628C145.879 24.7628 144.709 24.4658 143.665 23.8718C142.639 23.2778 141.82 22.4588 141.208 21.4148C140.614 20.3528 140.317 19.1288 140.317 17.7428C140.317 16.3568 140.623 15.1418 141.235 14.0978C141.847 13.0358 142.666 12.2078 143.692 11.6138C144.736 11.0198 145.906 10.7228 147.202 10.7228C148.48 10.7228 149.632 11.0198 150.658 11.6138C151.702 12.2078 152.521 13.0358 153.115 14.0978C153.727 15.1418 154.033 16.3568 154.033 17.7428C154.033 19.1288 153.727 20.3528 153.115 21.4148C152.521 22.4588 151.702 23.2778 150.658 23.8718C149.614 24.4658 148.453 24.7628 147.175 24.7628ZM147.175 21.7658C148.075 21.7658 148.858 21.4328 149.524 20.7668C150.19 20.0828 150.523 19.0748 150.523 17.7428C150.523 16.4108 150.19 15.4118 149.524 14.7458C148.858 14.0618 148.084 13.7198 147.202 13.7198C146.284 13.7198 145.492 14.0618 144.826 14.7458C144.178 15.4118 143.854 16.4108 143.854 17.7428C143.854 19.0748 144.178 20.0828 144.826 20.7668C145.492 21.4328 146.275 21.7658 147.175 21.7658Z" fill="white"/>
<path d="M157.204 24.4388V5.53884H160.66V24.4388H157.204Z" fill="white"/>
<path d="M164.242 24.4388V11.0468H167.293L167.563 13.3148C167.977 12.5228 168.571 11.8928 169.345 11.4248C170.137 10.9568 171.064 10.7228 172.126 10.7228C173.782 10.7228 175.069 11.2448 175.987 12.2888C176.905 13.3328 177.364 14.8628 177.364 16.8788V24.4388H173.908V17.2028C173.908 16.0508 173.674 15.1688 173.206 14.5568C172.738 13.9448 172.009 13.6388 171.019 13.6388C170.047 13.6388 169.246 13.9808 168.616 14.6648C168.004 15.3488 167.698 16.3028 167.698 17.5268V24.4388H164.242Z" fill="white"/>
<path d="M184.155 24.4388L179.241 11.0468H182.859L186.261 21.1718L189.663 11.0468H193.281L188.34 24.4388H184.155Z" fill="white"/>
<path d="M201.228 24.7628C199.932 24.7628 198.762 24.4658 197.718 23.8718C196.692 23.2778 195.873 22.4588 195.261 21.4148C194.667 20.3528 194.37 19.1288 194.37 17.7428C194.37 16.3568 194.676 15.1418 195.288 14.0978C195.9 13.0358 196.719 12.2078 197.745 11.6138C198.789 11.0198 199.959 10.7228 201.255 10.7228C202.533 10.7228 203.685 11.0198 204.711 11.6138C205.755 12.2078 206.574 13.0358 207.168 14.0978C207.78 15.1418 208.086 16.3568 208.086 17.7428C208.086 19.1288 207.78 20.3528 207.168 21.4148C206.574 22.4588 205.755 23.2778 204.711 23.8718C203.667 24.4658 202.506 24.7628 201.228 24.7628ZM201.228 21.7658C202.128 21.7658 202.911 21.4328 203.577 20.7668C204.243 20.0828 204.576 19.0748 204.576 17.7428C204.576 16.4108 204.243 15.4118 203.577 14.7458C202.911 14.0618 202.137 13.7198 201.255 13.7198C200.337 13.7198 199.545 14.0618 198.879 14.7458C198.231 15.4118 197.907 16.4108 197.907 17.7428C197.907 19.0748 198.231 20.0828 198.879 20.7668C199.545 21.4328 200.328 21.7658 201.228 21.7658Z" fill="white"/>
<path fill-rule="evenodd" clip-rule="evenodd" d="M109.5 15.8003C109.5 15.0325 110.329 14.5511 110.996 14.9321L112.988 16.0705C113.66 16.4544 113.66 17.4231 112.988 17.807L110.996 18.9454C110.329 19.3263 109.5 18.8449 109.5 18.0771V15.8003Z" fill="#ACB7D6"/>
<path d="M2 24.44V5.54H8.939C10.451 5.54 11.693 5.801 12.665 6.323C13.655 6.827 14.393 7.52 14.879 8.402C15.365 9.266 15.608 10.229 15.608 11.291C15.608 12.443 15.302 13.496 14.69 14.45C14.096 15.404 13.16 16.097 11.882 16.529L15.797 24.44H11.828L8.318 16.988H5.456V24.44H2ZM5.456 14.45H8.723C9.875 14.45 10.721 14.171 11.261 13.613C11.801 13.055 12.071 12.317 12.071 11.399C12.071 10.499 11.801 9.779 11.261 9.239C10.739 8.699 9.884 8.429 8.696 8.429H5.456V14.45Z" fill="#ACB7D6"/>
<path d="M23.7633 24.764C22.0893 24.764 20.7933 24.242 19.8753 23.198C18.9753 22.154 18.5253 20.624 18.5253 18.608V11.048H21.9543V18.284C21.9543 19.436 22.1883 20.318 22.6563 20.93C23.1243 21.542 23.8623 21.848 24.8703 21.848C25.8243 21.848 26.6073 21.506 27.2193 20.822C27.8493 20.138 28.1643 19.184 28.1643 17.96V11.048H31.6203V24.44H28.5693L28.2993 22.172C27.8853 22.964 27.2823 23.594 26.4903 24.062C25.7163 24.53 24.8073 24.764 23.7633 24.764Z" fill="#ACB7D6"/>
<path d="M35.168 24.44V11.048H38.219L38.489 13.316C38.903 12.524 39.497 11.894 40.271 11.426C41.063 10.958 41.99 10.724 43.052 10.724C44.708 10.724 45.995 11.246 46.913 12.29C47.831 13.334 48.29 14.864 48.29 16.88V24.44H44.834V17.204C44.834 16.052 44.6 15.17 44.132 14.558C43.664 13.946 42.935 13.64 41.945 13.64C40.973 13.64 40.172 13.982 39.542 14.666C38.93 15.35 38.624 16.304 38.624 17.528V24.44H35.168Z" fill="#ACB7D6"/>
<path d="M51.5948 24.44V11.048H54.6458L54.9158 13.316C55.3298 12.524 55.9238 11.894 56.6978 11.426C57.4898 10.958 58.4168 10.724 59.4788 10.724C61.1348 10.724 62.4218 11.246 63.3398 12.29C64.2578 13.334 64.7168 14.864 64.7168 16.88V24.44H61.2608V17.204C61.2608 16.052 61.0268 15.17 60.5588 14.558C60.0908 13.946 59.3618 13.64 58.3718 13.64C57.3998 13.64 56.5988 13.982 55.9688 14.666C55.3568 15.35 55.0508 16.304 55.0508 17.528V24.44H51.5948Z" fill="#ACB7D6"/>
<path d="M69.8845 8.969C69.2545 8.969 68.7325 8.78 68.3185 8.402C67.9225 8.024 67.7245 7.547 67.7245 6.971C67.7245 6.395 67.9225 5.927 68.3185 5.567C68.7325 5.189 69.2545 5 69.8845 5C70.5145 5 71.0275 5.189 71.4235 5.567C71.8375 5.927 72.0445 6.395 72.0445 6.971C72.0445 7.547 71.8375 8.024 71.4235 8.402C71.0275 8.78 70.5145 8.969 69.8845 8.969ZM68.1565 24.44V11.048H71.6125V24.44H68.1565Z" fill="#ACB7D6"/>
<path d="M75.2198 24.44V11.048H78.2708L78.5408 13.316C78.9548 12.524 79.5488 11.894 80.3228 11.426C81.1148 10.958 82.0418 10.724 83.1038 10.724C84.7598 10.724 86.0468 11.246 86.9648 12.29C87.8828 13.334 88.3418 14.864 88.3418 16.88V24.44H84.8858V17.204C84.8858 16.052 84.6518 15.17 84.1838 14.558C83.7158 13.946 82.9868 13.64 81.9968 13.64C81.0248 13.64 80.2238 13.982 79.5938 14.666C78.9818 15.35 78.6758 16.304 78.6758 17.528V24.44H75.2198Z" fill="#ACB7D6"/>
<path d="M97.3165 20.444C96.6685 20.444 96.0655 20.372 95.5075 20.228L94.5085 21.227C94.8145 21.389 95.2285 21.524 95.7505 21.632C96.2725 21.74 97.1185 21.848 98.2885 21.956C100.071 22.118 101.367 22.541 102.177 23.225C102.987 23.909 103.392 24.854 103.392 26.06C103.392 26.852 103.176 27.599 102.744 28.301C102.312 29.021 101.646 29.597 100.746 30.029C99.8455 30.479 98.6935 30.704 97.2895 30.704C95.3815 30.704 93.8425 30.344 92.6725 29.624C91.5025 28.922 90.9175 27.86 90.9175 26.438C90.9175 25.232 91.5025 24.188 92.6725 23.306C92.3125 23.144 91.9975 22.973 91.7275 22.793C91.4755 22.613 91.2505 22.424 91.0525 22.226V21.605L93.4015 19.121C92.3575 18.203 91.8355 17.024 91.8355 15.584C91.8355 14.684 92.0515 13.865 92.4835 13.127C92.9335 12.389 93.5635 11.804 94.3735 11.372C95.1835 10.94 96.1645 10.724 97.3165 10.724C98.0725 10.724 98.7745 10.832 99.4225 11.048H104.499V13.154L102.204 13.316C102.564 14 102.744 14.756 102.744 15.584C102.744 16.484 102.528 17.303 102.096 18.041C101.664 18.779 101.034 19.364 100.206 19.796C99.3955 20.228 98.4325 20.444 97.3165 20.444ZM97.3165 17.798C98.0185 17.798 98.5945 17.609 99.0445 17.231C99.5125 16.853 99.7465 16.313 99.7465 15.611C99.7465 14.909 99.5125 14.369 99.0445 13.991C98.5945 13.613 98.0185 13.424 97.3165 13.424C96.5785 13.424 95.9845 13.613 95.5345 13.991C95.0845 14.369 94.8595 14.909 94.8595 15.611C94.8595 16.313 95.0845 16.853 95.5345 17.231C95.9845 17.609 96.5785 17.798 97.3165 17.798ZM94.0765 26.087C94.0765 26.753 94.3825 27.248 94.9945 27.572C95.6245 27.914 96.3895 28.085 97.2895 28.085C98.1535 28.085 98.8555 27.905 99.3955 27.545C99.9355 27.203 100.206 26.735 100.206 26.141C100.206 25.655 100.026 25.25 99.6655 24.926C99.3235 24.602 98.6305 24.404 97.5865 24.332C96.8485 24.278 96.1645 24.197 95.5345 24.089C95.0125 24.377 94.6345 24.692 94.4005 25.034C94.1845 25.376 94.0765 25.727 94.0765 26.087Z" fill="#ACB7D6"/>
</svg>
